<svg width="356" height="57" viewBox="0 0 356 57" fill="none" xmlns="http://www.w3.org/2000/svg">
<path d="M9.7821 56.283C7.98143 56.283 6.3511 55.845 4.8911 54.969C3.4311 54.0443 2.23877 52.852 1.3141 51.392C0.4381 49.932 9.98117e-05 48.3017 9.98117e-05 46.501V23.725C9.98117e-05 21.9243 0.4381 20.294 1.3141 18.834C2.23877 17.374 3.4311 16.206 4.8911 15.33C6.3511 14.4053 7.98143 13.943 9.7821 13.943H42.9241V22.63H10.0741C9.68477 22.63 9.3441 22.776 9.0521 23.068C8.80877 23.3113 8.6871 23.6277 8.6871 24.017V46.209C8.6871 46.5983 8.80877 46.939 9.0521 47.231C9.3441 47.4743 9.68477 47.596 10.0741 47.596H42.9971V56.283H9.7821ZM60.1835 56.283C58.3828 56.283 56.7525 55.845 55.2925 54.969C53.8325 54.0443 52.6401 52.852 51.7155 51.392C50.8395 49.932 50.4015 48.3017 50.4015 46.501V23.725C50.4015 21.9243 50.8395 20.294 51.7155 18.834C52.6401 17.374 53.8325 16.206 55.2925 15.33C56.7525 14.4053 58.3828 13.943 60.1835 13.943H83.6165C85.4658 13.943 87.1205 14.4053 88.5805 15.33C90.0405 16.206 91.2085 17.374 92.0845 18.834C92.9605 20.294 93.3985 21.9243 93.3985 23.725V46.501C93.3985 48.3017 92.9605 49.932 92.0845 51.392C91.2085 52.852 90.0405 54.0443 88.5805 54.969C87.1205 55.845 85.4658 56.283 83.6165 56.283H60.1835ZM60.4755 47.596H83.3245C83.7138 47.596 84.0301 47.4743 84.2735 47.231C84.5655 46.939 84.7115 46.5983 84.7115 46.209V24.017C84.7115 23.6277 84.5655 23.3113 84.2735 23.068C84.0301 22.776 83.7138 22.63 83.3245 22.63H60.4755C60.0861 22.63 59.7455 22.776 59.4535 23.068C59.2101 23.3113 59.0885 23.6277 59.0885 24.017V46.209C59.0885 46.5983 59.2101 46.939 59.4535 47.231C59.7455 47.4743 60.0861 47.596 60.4755 47.596ZM99.5248 56.283V13.943H132.813C134.565 13.943 136.171 14.4053 137.631 15.33C139.139 16.206 140.332 17.374 141.208 18.834C142.084 20.294 142.522 21.9243 142.522 23.725V56.283H133.835V24.017C133.835 23.6277 133.689 23.3113 133.397 23.068C133.153 22.776 132.861 22.63 132.521 22.63H109.599C109.258 22.63 108.942 22.776 108.65 23.068C108.358 23.3113 108.212 23.6277 108.212 24.017V56.283H99.5248ZM158.914 56.283C157.113 56.283 155.483 55.845 154.023 54.969C152.563 54.0443 151.37 52.852 150.446 51.392C149.57 49.932 149.132 48.3017 149.132 46.501V45.114H157.819V46.209C157.819 46.5983 157.94 46.939 158.184 47.231C158.476 47.4743 158.816 47.596 159.206 47.596H182.055C182.444 47.596 182.76 47.4743 183.004 47.231C183.296 46.939 183.442 46.5983 183.442 46.209V40.807C183.442 40.4663 183.296 40.1743 183.004 39.931C182.76 39.639 182.444 39.493 182.055 39.493H158.914C157.113 39.493 155.483 39.055 154.023 38.179C152.563 37.2543 151.37 36.062 150.446 34.602C149.57 33.142 149.132 31.5117 149.132 29.711V23.725C149.132 21.9243 149.57 20.294 150.446 18.834C151.37 17.374 152.563 16.206 154.023 15.33C155.483 14.4053 157.113 13.943 158.914 13.943H182.347C184.196 13.943 185.851 14.4053 187.311 15.33C188.771 16.206 189.939 17.374 190.815 18.834C191.739 20.294 192.202 21.9243 192.202 23.725V25.112H183.442V24.017C183.442 23.6277 183.296 23.3113 183.004 23.068C182.76 22.776 182.444 22.63 182.055 22.63H159.206C158.816 22.63 158.476 22.776 158.184 23.068C157.94 23.3113 157.819 23.6277 157.819 24.017V29.419C157.819 29.7597 157.94 30.076 158.184 30.368C158.476 30.6113 158.816 30.733 159.206 30.733H182.347C184.196 30.733 185.851 31.1953 187.311 32.12C188.771 32.996 189.939 34.164 190.815 35.624C191.739 37.084 192.202 38.7143 192.202 40.515V46.501C192.202 48.3017 191.739 49.932 190.815 51.392C189.939 52.852 188.771 54.0443 187.311 54.969C185.851 55.845 184.196 56.283 182.347 56.283H158.914ZM208.393 56.283C206.593 56.283 204.962 55.845 203.502 54.969C202.042 54.0443 200.85 52.852 199.925 51.392C199.049 49.932 198.611 48.3017 198.611 46.501V23.725C198.611 21.9243 199.049 20.294 199.925 18.834C200.85 17.374 202.042 16.206 203.502 15.33C204.962 14.4053 206.593 13.943 208.393 13.943H231.826C233.676 13.943 235.33 14.4053 236.79 15.33C238.25 16.206 239.418 17.374 240.294 18.834C241.17 20.294 241.608 21.9243 241.608 23.725V46.501C241.608 48.3017 241.17 49.932 240.294 51.392C239.418 52.852 238.25 54.0443 236.79 54.969C235.33 55.845 233.676 56.283 231.826 56.283H208.393ZM208.685 47.596H231.534C231.924 47.596 232.24 47.4743 232.483 47.231C232.775 46.939 232.921 46.5983 232.921 46.209V24.017C232.921 23.6277 232.775 23.3113 232.483 23.068C232.24 22.776 231.924 22.63 231.534 22.63H208.685C208.296 22.63 207.955 22.776 207.663 23.068C207.42 23.3113 207.298 23.6277 207.298 24.017V46.209C207.298 46.5983 207.42 46.939 207.663 47.231C207.955 47.4743 208.296 47.596 208.685 47.596ZM257.299 56.283C255.499 56.283 253.868 55.845 252.408 54.969C250.948 54.0443 249.756 52.852 248.831 51.392C247.955 49.932 247.517 48.3017 247.517 46.501V2.74181e-06H256.277V46.209C256.277 46.5983 256.399 46.939 256.642 47.231C256.934 47.4743 257.251 47.596 257.591 47.596H265.475V56.283H257.299ZM280.467 56.283C278.666 56.283 277.036 55.845 275.576 54.969C274.116 54.0443 272.923 52.852 271.999 51.392C271.123 49.932 270.685 48.3017 270.685 46.501V23.725C270.685 21.9243 271.123 20.294 271.999 18.834C272.923 17.374 274.116 16.206 275.576 15.33C277.036 14.4053 278.666 13.943 280.467 13.943H303.9C305.749 13.943 307.404 14.4053 308.864 15.33C310.324 16.206 311.492 17.374 312.368 18.834C313.244 20.294 313.682 21.9243 313.682 23.725V39.493H279.372V46.209C279.372 46.5983 279.493 46.939 279.737 47.231C280.029 47.4743 280.369 47.596 280.759 47.596H313.682V56.283H280.467ZM279.372 31.536H304.995V24.017C304.995 23.6277 304.849 23.3113 304.557 23.068C304.313 22.776 303.997 22.63 303.608 22.63H280.759C280.369 22.63 280.029 22.776 279.737 23.068C279.493 23.3113 279.372 23.6277 279.372 24.017V31.536ZM317.944 56.283V46.647L352.911 4.015L355.247 3.723V13.213L320.353 55.918L317.944 56.283Z" fill="black"/>
</svg>
