<svg width="32" height="32" viewBox="0 0 32 32" fill="none" xmlns="http://www.w3.org/2000/svg">
<rect width="32" height="32" rx="16" fill="#141414"/>
<path d="M9.56659 22.04C9.15659 22.04 8.78159 21.94 8.44159 21.74C8.11159 21.54 7.84659 21.275 7.64659 20.945C7.44659 20.605 7.34659 20.23 7.34659 19.82V13.46C7.34659 13.05 7.44659 12.68 7.64659 12.35C7.84659 12.01 8.11159 11.74 8.44159 11.54C8.78159 11.34 9.15659 11.24 9.56659 11.24H18.1166V13.58H10.1666C10.0066 13.58 9.88159 13.62 9.79159 13.7C9.71159 13.78 9.67159 13.905 9.67159 14.075V19.205C9.67159 19.365 9.71159 19.49 9.79159 19.58C9.88159 19.66 10.0066 19.7 10.1666 19.7H18.1166V22.04H9.56659ZM19.6806 22.04V19.715L26.5956 11.24H27.4206V13.55L20.5056 22.04H19.6806Z" fill="white"/>
</svg>
